<?xml version="1.0" encoding="utf-8"?>
<!-- Generator: Adobe Illustrator 21.1.0, SVG Export Plug-In . SVG Version: 6.00 Build 0)  -->
<svg version="1.1" id="Capa_1" xmlns="http://www.w3.org/2000/svg" xmlns:xlink="http://www.w3.org/1999/xlink" x="0px" y="0px"
	 viewBox="0 0 262 78.9" style="enable-background:new 0 0 262 78.9;" xml:space="preserve">
<style type="text/css">
	.st0{fill:#FFFFFF;}
</style>
<g>
	<g>
		<path class="st0" d="M29.5,42.1c-2.7,1-5.4,1.5-8.1,1.5c-3.1,0-5.9-0.5-8.5-1.6S8,39.4,6.2,37.5s-3.3-4.2-4.3-6.9
			c-1-2.7-1.5-5.6-1.5-8.7c0-3.1,0.5-6.1,1.5-8.7c1-2.7,2.5-5,4.3-6.9s4.1-3.4,6.7-4.5C15.4,0.5,18.3,0,21.3,0
			c2.6,0,5.1,0.4,7.5,1.3c2.4,0.9,4.5,2.2,6.2,4l-0.8,0.9c-0.8-0.9-1.7-1.6-2.8-2.2c-1-0.6-2.1-1.2-3.3-1.6C27,2,25.9,1.7,24.7,1.5
			c-1.2-0.2-2.3-0.3-3.4-0.3c-3,0-5.6,0.5-8.1,1.6C10.8,3.8,8.7,5.3,7,7.2C5.3,9,3.9,11.2,3,13.7c-1,2.5-1.4,5.2-1.4,8.1
			c0,2.9,0.5,5.6,1.4,8.1c0.9,2.5,2.3,4.7,4,6.6c1.7,1.9,3.8,3.3,6.2,4.4c2.4,1.1,5.1,1.6,8.1,1.6c2.6,0,5.1-0.5,7.6-1.5
			c2.5-1,4.6-2.5,6.2-4.5l0.9,0.9C34.3,39.5,32.1,41.1,29.5,42.1z"/>
		<path class="st0" d="M47.4,42.5V1.2h1.3v40.1h20.5v1.2H47.4z"/>
		<path class="st0" d="M109.6,42.5l-4.9-11.8h-24l-5.1,11.8h-1.4L92.1,1.2h1.6L111,42.5H109.6z M92.9,2L81.2,29.5h23.1L92.9,2z"/>
		<path class="st0" d="M150.5,33.4c-0.5,2-1.4,3.8-2.7,5.3c-1.2,1.5-2.9,2.7-4.9,3.6c-2,0.9-4.5,1.3-7.4,1.3s-5.4-0.4-7.4-1.3
			c-2-0.9-3.6-2.1-4.9-3.6c-1.2-1.5-2.1-3.3-2.7-5.3c-0.5-2-0.8-4.2-0.8-6.6V1.2h1.3v25.4c0,1.6,0.2,3.4,0.5,5.2
			c0.3,1.8,1,3.6,2,5.1c1,1.6,2.5,2.9,4.4,3.9c1.9,1,4.4,1.6,7.6,1.6c3.1,0,5.6-0.5,7.4-1.5c1.9-1,3.4-2.3,4.4-3.9s1.8-3.3,2.1-5.1
			c0.4-1.8,0.5-3.6,0.5-5.3V1.2h1.3v25.7C151.3,29.2,151.1,31.4,150.5,33.4z"/>
		<path class="st0" d="M200.5,21.8c0,3.6-0.6,6.7-1.7,9.2c-1.2,2.6-2.8,4.7-4.8,6.4s-4.5,2.9-7.2,3.8c-2.8,0.8-5.8,1.2-8.9,1.2H166
			V1.2h11.7c3.2,0,6.2,0.4,8.9,1.2c2.8,0.8,5.2,2,7.2,3.7s3.7,3.8,4.8,6.4C199.9,15.1,200.5,18.2,200.5,21.8z M167.3,2.3v39h10.1
			c3,0,5.9-0.4,8.6-1.1c2.7-0.8,5-1.9,6.9-3.5c1.9-1.6,3.5-3.6,4.6-6c1.1-2.4,1.7-5.4,1.7-8.8c0-3.4-0.6-6.4-1.7-8.8
			c-1.1-2.5-2.7-4.5-4.6-6.1c-1.9-1.6-4.3-2.7-6.9-3.5c-2.7-0.7-5.5-1.1-8.6-1.1H167.3z"/>
		<path class="st0" d="M213.9,42.5V1.2h1.3v41.3H213.9z"/>
		<path class="st0" d="M260.6,42.5l-4.9-11.8h-24l-5.1,11.8h-1.4l17.9-41.3h1.6L262,42.5H260.6z M244,2l-11.7,27.5h23.1L244,2z"/>
	</g>
	<g>
		<path class="st0" d="M14.9,78.1L7,64.9H0.8v13.2H0V51.9h7.3c1,0,1.9,0.1,2.9,0.3c1,0.2,1.9,0.5,2.7,1c0.8,0.5,1.4,1.1,1.9,2
			c0.5,0.8,0.7,1.9,0.7,3.3c0,1.2-0.2,2.3-0.7,3.1c-0.5,0.8-1.1,1.5-1.8,2c-0.7,0.5-1.6,0.9-2.5,1.1c-0.9,0.2-1.8,0.3-2.7,0.3
			l8,13.3H14.9z M14.7,58.4c0-1.1-0.2-2.1-0.7-2.8s-1-1.3-1.8-1.8c-0.7-0.4-1.6-0.7-2.5-0.9c-1-0.2-1.9-0.3-2.9-0.3h-6v11.6h6.4
			c2.4,0,4.3-0.5,5.5-1.5C14.1,61.7,14.7,60.2,14.7,58.4z"/>
		<path class="st0" d="M43,72.4c-0.3,1.3-0.9,2.4-1.7,3.4c-0.8,1-1.8,1.7-3.1,2.3c-1.3,0.6-2.8,0.8-4.7,0.8s-3.4-0.3-4.7-0.8
			c-1.3-0.6-2.3-1.3-3.1-2.3c-0.8-1-1.4-2.1-1.7-3.4c-0.3-1.3-0.5-2.7-0.5-4.2V51.9h0.8v16.2c0,1,0.1,2.1,0.3,3.3
			c0.2,1.2,0.6,2.3,1.3,3.3c0.7,1,1.6,1.8,2.8,2.5c1.2,0.7,2.8,1,4.8,1c2,0,3.5-0.3,4.7-1c1.2-0.6,2.1-1.5,2.8-2.5
			c0.7-1,1.1-2.1,1.3-3.3s0.3-2.3,0.3-3.4V51.9h0.8v16.3C43.6,69.7,43.4,71.1,43,72.4z"/>
		<path class="st0" d="M52.9,78.1V51.9h0.8v26.3H52.9z"/>
		<path class="st0" d="M61.5,78.1v-1l17.3-24.5H62v-0.7h17.5V53L62.3,77.4H80v0.7H61.5z"/>
		<path class="st0" d="M123.4,78.1V52.8h-0.1l-11.6,25.3H111L99.4,52.8h-0.1v25.3h-0.8V51.9h1.4L111.3,77l11.4-25.1h1.4v26.3H123.4z
			"/>
		<path class="st0" d="M153.2,78.1l-3.1-7.5h-15.2l-3.2,7.5h-0.9l11.4-26.3h1l10.9,26.3H153.2z M142.5,52.4l-7.5,17.5h14.7
			L142.5,52.4z"/>
		<path class="st0" d="M175.1,71.8c0,1.1-0.2,2.1-0.6,3c-0.4,0.9-1,1.6-1.7,2.2c-0.7,0.6-1.6,1.1-2.5,1.4c-1,0.3-2,0.5-3.1,0.5
			c-1.6,0-3.1-0.3-4.5-0.9c-1.3-0.6-2.5-1.4-3.4-2.4l0.6-0.6c0.9,1,2,1.8,3.3,2.3c1.2,0.5,2.5,0.8,3.9,0.8c1,0,1.9-0.1,2.7-0.4
			c0.9-0.3,1.6-0.7,2.3-1.2c0.7-0.5,1.2-1.2,1.6-2c0.4-0.8,0.6-1.7,0.6-2.7c0-1-0.2-1.9-0.6-2.6c-0.4-0.7-1-1.3-1.6-1.8
			s-1.4-0.9-2.3-1.2c-0.9-0.3-1.7-0.6-2.6-0.9c-1.1-0.3-2.1-0.7-3-1.1c-0.9-0.4-1.7-0.9-2.3-1.4c-0.7-0.6-1.2-1.2-1.5-2
			s-0.5-1.7-0.5-2.8c0-1.1,0.2-2.1,0.6-2.9s1-1.6,1.8-2.2c0.7-0.6,1.6-1,2.6-1.3c1-0.3,2-0.5,3.1-0.5c1.3,0,2.6,0.3,3.8,0.8
			c1.2,0.5,2.2,1.2,3,2.2l-0.6,0.6c-0.7-0.9-1.6-1.5-2.7-2s-2.2-0.7-3.5-0.7c-0.9,0-1.8,0.1-2.6,0.4c-0.9,0.2-1.6,0.6-2.3,1.1
			c-0.7,0.5-1.3,1.1-1.7,1.9c-0.4,0.8-0.6,1.7-0.6,2.7c0,1,0.2,1.9,0.6,2.6s0.9,1.3,1.5,1.8c0.6,0.5,1.3,0.9,2.1,1.2
			c0.8,0.3,1.6,0.6,2.4,0.9c1.1,0.4,2.2,0.7,3.1,1.1c1,0.4,1.8,0.8,2.5,1.4s1.3,1.2,1.7,2S175.1,70.7,175.1,71.8z"/>
		<path class="st0" d="M198.1,71.8c0,1.1-0.2,2.1-0.6,3c-0.4,0.9-1,1.6-1.7,2.2c-0.7,0.6-1.6,1.1-2.5,1.4c-1,0.3-2,0.5-3.1,0.5
			c-1.6,0-3.1-0.3-4.5-0.9c-1.3-0.6-2.5-1.4-3.4-2.4l0.6-0.6c0.9,1,2,1.8,3.3,2.3s2.5,0.8,3.9,0.8c1,0,1.9-0.1,2.7-0.4
			c0.9-0.3,1.6-0.7,2.3-1.2c0.7-0.5,1.2-1.2,1.6-2c0.4-0.8,0.6-1.7,0.6-2.7c0-1-0.2-1.9-0.6-2.6c-0.4-0.7-1-1.3-1.6-1.8
			s-1.4-0.9-2.3-1.2s-1.7-0.6-2.6-0.9c-1.1-0.3-2.1-0.7-3-1.1c-0.9-0.4-1.7-0.9-2.3-1.4c-0.7-0.6-1.2-1.2-1.5-2
			c-0.4-0.8-0.5-1.7-0.5-2.8c0-1.1,0.2-2.1,0.6-2.9c0.4-0.9,1-1.6,1.8-2.2c0.7-0.6,1.6-1,2.6-1.3c1-0.3,2-0.5,3.1-0.5
			c1.3,0,2.6,0.3,3.8,0.8c1.2,0.5,2.2,1.2,2.9,2.2l-0.6,0.6c-0.7-0.9-1.6-1.5-2.7-2s-2.2-0.7-3.5-0.7c-0.9,0-1.8,0.1-2.6,0.4
			c-0.9,0.2-1.6,0.6-2.3,1.1s-1.2,1.1-1.7,1.9c-0.4,0.8-0.6,1.7-0.6,2.7c0,1,0.2,1.9,0.6,2.6s0.9,1.3,1.5,1.8
			c0.6,0.5,1.3,0.9,2.1,1.2c0.8,0.3,1.6,0.6,2.4,0.9c1.1,0.4,2.2,0.7,3.1,1.1s1.8,0.8,2.5,1.4c0.7,0.5,1.3,1.2,1.7,2
			S198.1,70.7,198.1,71.8z"/>
		<path class="st0" d="M206.5,78.1V51.9h0.8v26.3H206.5z"/>
		<path class="st0" d="M217.1,78.1V51.9h15.3v0.7h-14.5v11.5h13.7v0.7h-13.7v12.5H233v0.7H217.1z"/>
		<path class="st0" d="M259.9,72.4c-0.3,1.3-0.9,2.4-1.7,3.4s-1.8,1.7-3.1,2.3c-1.3,0.6-2.8,0.8-4.7,0.8c-1.9,0-3.4-0.3-4.7-0.8
			c-1.3-0.6-2.3-1.3-3.1-2.3c-0.8-1-1.4-2.1-1.7-3.4s-0.5-2.7-0.5-4.2V51.9h0.8v16.2c0,1,0.1,2.1,0.3,3.3s0.6,2.3,1.3,3.3
			c0.7,1,1.6,1.8,2.8,2.5c1.2,0.7,2.8,1,4.8,1c2,0,3.5-0.3,4.7-1c1.2-0.6,2.1-1.5,2.8-2.5c0.7-1,1.1-2.1,1.3-3.3s0.3-2.3,0.3-3.4
			V51.9h0.8v16.3C260.5,69.7,260.3,71.1,259.9,72.4z"/>
	</g>
</g>
</svg>
